HIERARCHY
ROOT Hips
{
  OFFSET 39.5698 98.839 4.35775
  CHANNELS 6 Xposition Yposition Zposition Zrotation Xrotation Yrotation
  JOINT spine
  {
    OFFSET 0 8.30103 0.477351
    CHANNELS 3 Zrotation Xrotation Yrotation
    JOINT spine1
    {
      OFFSET 0 10.4565 0
      CHANNELS 3 Zrotation Xrotation Yrotation
      JOINT spine2
      {
        OFFSET 0 10.0192 0
        CHANNELS 3 Zrotation Xrotation Yrotation
        JOINT Neck
        {
          OFFSET 0 25.7235 1.22641
          CHANNELS 3 Zrotation Xrotation Yrotation
          JOINT Head
          {
            OFFSET 0 7.77175 0
            CHANNELS 3 Zrotation Xrotation Yrotation
            End Site
            {
              OFFSET 0 18.812 -6.20394
            }
          }
        }
        JOINT RightShoulder
        {
          OFFSET -4.2188 10.82 -0.587439
          CHANNELS 3 Zrotation Xrotation Yrotation
          JOINT RightArm
          {
            OFFSET 0 14.1914 0
            CHANNELS 3 Zrotation Xrotation Yrotation
            JOINT RightArmRoll
            {
              OFFSET 0 7.16409 0
              CHANNELS 3 Zrotation Xrotation Yrotation
              JOINT RightForeArm
              {
                OFFSET 0 20.8665 0
                CHANNELS 3 Zrotation Xrotation Yrotation
                JOINT RightForeArmRoll
                {
                  OFFSET 0 8.03922 0
                  CHANNELS 3 Zrotation Xrotation Yrotation
                  JOINT RightHand
                  {
                    OFFSET 0 16.133 0
                    CHANNELS 3 Zrotation Xrotation Yrotation
                    End Site
                    {
                      OFFSET 0 0 0
                    }
                  }
                }
              }
            }
          }
        }
        JOINT LeftShoulder
        {
          OFFSET 4.2188 10.82 -0.587439
          CHANNELS 3 Zrotation Xrotation Yrotation
          JOINT LeftArm
          {
            OFFSET 0 14.1914 0
            CHANNELS 3 Zrotation Xrotation Yrotation
            JOINT LeftArmRoll
            {
              OFFSET 0 7.16408 0
              CHANNELS 3 Zrotation Xrotation Yrotation
              JOINT LeftForeArm
              {
                OFFSET 0 20.8665 0
                CHANNELS 3 Zrotation Xrotation Yrotation
                JOINT LeftForeArmRoll
                {
                  OFFSET 0 8.03921 0
                  CHANNELS 3 Zrotation Xrotation Yrotation
                  JOINT LeftHand
                  {
                    OFFSET 0 16.133 0
                    CHANNELS 3 Zrotation Xrotation Yrotation
                    End Site
                    {
                      OFFSET 0 0 0
                    }
                  }
                }
              }
            }
          }
        }
      }
    }
  }
  JOINT RightUpLeg
  {
    OFFSET -7.35773 -1.34921 -1.13181
    CHANNELS 3 Zrotation Xrotation Yrotation
    JOINT RightUpLegRoll
    {
      OFFSET 0 18.9168 0
      CHANNELS 3 Zrotation Xrotation Yrotation
      JOINT RightLeg
      {
        OFFSET 0 -23.4256 0
        CHANNELS 3 Zrotation Xrotation Yrotation
        JOINT RightLegRoll
        {
          OFFSET 0 23.5023 0
          CHANNELS 3 Zrotation Xrotation Yrotation
          JOINT RightFoot
          {
            OFFSET 0 19.5617 0
            CHANNELS 3 Zrotation Xrotation Yrotation
            JOINT RightToeBase
            {
              OFFSET 0 16.3526 0
              CHANNELS 3 Zrotation Xrotation Yrotation
              End Site
              {
                OFFSET 0.00693125 7.91943 -0.912837
              }
            }
          }
        }
      }
    }
  }
  JOINT LeftUpLeg
  {
    OFFSET 7.35773 -1.34921 -1.13181
    CHANNELS 3 Zrotation Xrotation Yrotation
    JOINT LeftUpLegRoll
    {
      OFFSET 0 18.9169 0
      CHANNELS 3 Zrotation Xrotation Yrotation
      JOINT LeftLeg
      {
        OFFSET 0 23.4255 0
        CHANNELS 3 Zrotation Xrotation Yrotation
        JOINT LeftLegRoll
        {
          OFFSET 0 23.7195 0
          CHANNELS 3 Zrotation Xrotation Yrotation
          JOINT LeftFoot
          {
            OFFSET 0 19.3444 0
            CHANNELS 3 Zrotation Xrotation Yrotation
            JOINT LeftToeBase
            {
              OFFSET 0 16.3526 0
              CHANNELS 3 Zrotation Xrotation Yrotation
              End Site
              {
                OFFSET -0.0310629 7.91943 -0.912837
              }
            }
          }
        }
      }
    }
  }
}
MOTION
Frames: 11
Frame Time: 0.00208333
39.5094 98.8376 3.07779 1.09879 -1.07931 1.37551 0.0284668 -1.77679 0.105123 0.0808947 0.440679 0.234825 0.0782492 2.08573 0.23352 -2.81081 19.1821 -0.062898 1.34767 -6.37606 -0.744352 73.3994 -0.847338 -2.09025 95.9309 19.275 24.9481 -9.54166e-015 0 -3.18055e-015 9.92786 0.067906 -0.017799 4.53612e-006 3.71747e-006 -3.0416 8.02894 -4.95146 0.697669 -66.8426 1.98451 -0.0582057 -100.38 9.01976 -17.673 5.20764e-007 -1.50383e-007 -3.28196e-006 -10.0235 5.59922 1.08855 -2.84531e-006 8.42267e-007 3 -8.02894 -4.95147 -0.697689 175.332 0.546813 1.6473 180 7.01556e-015 178.964 175.288 4.50248 179.814 -1.25293e-006 -3.05391e-006 0.0552756 -18.5521 67.9004 19.4548 8.13649 25.2327 -3.48774 -176.903 0.367816 2.00457 4.54188e-006 -4.6773e-006 -1.10792 -3.23056 -7.63062 0.445026 -1.14586e-006 -8.28892e-006 -0.0992002 18.2867 67.4086 -19.0522 -8.13649 25.2327 3.48773 
39.5105 98.8352 3.07371 1.09891 -1.08418 1.37352 0.0286671 -1.77634 0.105129 0.0797285 0.44276 0.234692 0.0770792 2.08782 0.233413 -2.81704 19.2143 -0.0558929 1.35213 -6.41318 -0.738839 73.3886 -0.851942 -2.09127 95.9339 19.3221 24.9618 1.59028e-015 -6.36111e-015 -0 9.88985 0.0679885 -0.0156665 4.53612e-006 3.71747e-006 -3.04157 8.02894 -4.95146 0.697669 -66.8554 1.99361 -0.0611533 -100.349 9.02668 -17.6624 5.20764e-007 -1.50383e-007 -3.28196e-006 -10.0306 5.64996 1.09446 -2.84531e-006 8.42267e-007 3 -8.02894 -4.95147 -0.697689 175.333 0.54589 1.64414 180 7.01556e-015 178.964 175.293 4.50577 179.814 -1.25293e-006 -3.05391e-006 0.0552756 -18.5519 67.9001 19.4545 8.13649 25.2327 -3.48774 -176.903 0.373974 2.00793 4.54188e-006 -4.6773e-006 -1.10792 -3.22617 -7.64703 0.445028 -1.14586e-006 -8.28892e-006 -0.0992002 18.294 67.4178 -19.0596 -8.13649 25.2327 3.48773 
39.51 98.8365 3.07264 1.09903 -1.08903 1.37146 0.0288745 -1.77591 0.105135 0.0785105 0.444869 0.234569 0.0758572 2.08993 0.233318 -2.82286 19.2467 -0.0488712 1.35606 -6.45089 -0.73326 73.3773 -0.856623 -2.09229 95.9372 19.368 24.972 -3.18055e-015 3.18055e-015 -6.36111e-015 9.85561 0.0681068 -0.0136822 4.53612e-006 3.71747e-006 -3.04154 8.02894 -4.95146 0.697669 -66.8677 2.00278 -0.0642066 -100.319 9.03333 -17.65 5.20764e-007 -1.50383e-007 -3.28196e-006 -10.0391 5.70153 1.10049 -2.84531e-006 8.42267e-007 3 -8.02894 -4.95147 -0.697689 175.335 0.545014 1.64085 180 7.01556e-015 178.964 175.298 4.50909 179.814 -1.25293e-006 -3.05391e-006 0.0552756 -18.5517 67.8999 19.4543 8.13649 25.2327 -3.48774 -176.904 0.380446 2.01147 4.54188e-006 -4.6773e-006 -1.10792 -3.2216 -7.66392 0.445036 -1.14586e-006 -8.28892e-006 -0.0992002 18.3016 67.4273 -19.0673 -8.13649 25.2327 3.48773 
39.508 98.8355 3.06268 1.09917 -1.09385 1.36935 0.0290868 -1.77548 0.105142 0.0772562 0.446997 0.234454 0.0745988 2.09205 0.23323 -2.82839 19.2791 -0.0418371 1.35961 -6.489 -0.727635 73.3657 -0.861359 -2.0933 95.9407 19.4131 24.9797 -7.95139e-016 -3.18055e-015 -3.18055e-015 9.824 0.0682501 -0.0118016 4.53612e-006 3.71747e-006 -3.04149 8.02894 -4.95146 0.697669 -66.8796 2.01199 -0.0673337 -100.289 9.03979 -17.6365 5.20764e-007 -1.50383e-007 -3.28196e-006 -10.0484 5.75369 1.1066 -2.84531e-006 8.42267e-007 3 -8.02894 -4.95147 -0.697689 175.337 0.544171 1.63746 180 7.01556e-015 178.964 175.303 4.51241 179.814 -1.25293e-006 -3.05391e-006 0.0552756 -18.5515 67.8996 19.4541 8.13649 25.2327 -3.48774 -176.905 0.387138 2.01514 4.54188e-006 -4.6773e-006 -1.10792 -3.21689 -7.68116 0.445047 -1.14586e-006 -8.28892e-006 -0.0992002 18.3093 67.4371 -19.0752 -8.13649 25.2327 3.48773 
39.5093 98.8368 3.06544 1.0993 -1.09867 1.36722 0.0293021 -1.77507 0.105148 0.0759812 0.449136 0.234342 0.0733196 2.09419 0.233147 -2.83377 19.3115 -0.0347948 1.36295 -6.52735 -0.721982 73.354 -0.866126 -2.0943 95.9442 19.4577 24.9859 -8.74653e-015 0 -0 9.7939 0.0684076 -0.0099803 4.53612e-006 3.71746e-006 -3.04144 8.02894 -4.95146 0.697669 -66.8913 2.02124 -0.070503 -100.259 9.04616 -17.6222 5.20764e-007 -1.50383e-007 -3.28196e-006 -10.0582 5.80617 1.11275 -2.84531e-006 8.42267e-007 3 -8.02894 -4.95147 -0.697689 175.338 0.543346 1.63402 180 7.01556e-015 178.964 175.308 4.51575 179.814 -1.25293e-006 -3.05391e-006 0.0552756 -18.5513 67.8994 19.4539 8.13649 25.2327 -3.48774 -176.905 0.393955 2.01888 4.54188e-006 -4.6773e-006 -1.10792 -3.21211 -7.6986 0.445062 -1.14586e-006 -8.28892e-006 -0.0992002 18.3172 67.447 -19.0831 -8.13649 25.2327 3.48773 
39.5123 98.8401 3.05857 1.09944 -1.10348 1.36508 0.029518 -1.77465 0.105155 0.074701 0.451278 0.234232 0.0720352 2.09633 0.233065 -2.83911 19.3439 -0.0277483 1.36624 -6.56575 -0.716323 73.3422 -0.870901 -2.09531 95.9478 19.5023 24.9918 2.06736e-014 -1.59028e-014 3.18055e-015 9.76418 0.0685688 -0.00817382 4.53612e-006 3.71746e-006 -3.04138 8.02894 -4.95146 0.697669 -66.9029 2.03049 -0.0736829 -100.229 9.05249 -17.6078 5.20764e-007 -1.50383e-007 -3.28196e-006 -10.0682 5.85875 1.11892 -2.84531e-006 8.42267e-007 3 -8.02894 -4.95147 -0.697689 175.34 0.542526 1.63057 180 7.01556e-015 178.964 175.313 4.51908 179.814 -1.25293e-006 -3.05391e-006 0.0552756 -18.5512 67.8992 19.4537 8.13649 25.2327 -3.48774 -176.906 0.400803 2.02264 4.54188e-006 -4.6773e-006 -1.10792 -3.20731 -7.71609 0.445076 -1.14586e-006 -8.28892e-006 -0.0992002 18.3251 67.4569 -19.0912 -8.13649 25.2327 3.48773 
39.5081 98.8385 3.04962 1.09958 -1.1083 1.36295 0.0297325 -1.77423 0.105161 0.0734312 0.453414 0.234119 0.0707612 2.09847 0.232981 -2.84455 19.3763 -0.0207018 1.36965 -6.60404 -0.710676 73.3305 -0.875661 -2.09632 95.9513 19.547 24.9984 4.77083e-015 -9.54166e-015 -0 9.7337 0.0687228 -0.0063377 4.53612e-006 3.71747e-006 -3.04133 8.02894 -4.95146 0.697669 -66.9147 2.03973 -0.0768418 -100.2 9.05888 -17.5938 5.20764e-007 -1.50383e-007 -3.28196e-006 -10.078 5.91115 1.12507 -2.84531e-006 8.42267e-007 3 -8.02894 -4.95147 -0.697689 175.342 0.541697 1.62714 180 7.01556e-015 178.964 175.318 4.52242 179.814 -1.25293e-006 -3.05391e-006 0.0552756 -18.551 67.899 19.4535 8.13649 25.2327 -3.48774 -176.907 0.407588 2.02637 4.54188e-006 -4.6773e-006 -1.10792 -3.20255 -7.73348 0.44509 -1.14586e-006 -8.28892e-006 -0.0992002 18.333 67.4667 -19.0991 -8.13649 25.2327 3.48773 
39.504 98.8347 3.04677 1.09971 -1.11314 1.36086 0.0299434 -1.7738 0.105167 0.0721873 0.455537 0.234002 0.0695132 2.10059 0.232891 -2.8502 19.4087 -0.0136594 1.37334 -6.64203 -0.705061 73.319 -0.880381 -2.09733 95.9547 19.5924 25.0069 7.95139e-016 0 -0 9.70134 0.068859 -0.00442749 4.53612e-006 3.71746e-006 -3.04129 8.02894 -4.95146 0.697669 -66.9267 2.04893 -0.079948 -100.17 9.0654 -17.5806 5.20764e-007 -1.50383e-007 -3.28196e-006 -10.0871 5.96314 1.13117 -2.84531e-006 8.42267e-007 3 -8.02894 -4.95147 -0.697689 175.343 0.540844 1.62378 180 7.01556e-015 178.964 175.323 4.52575 179.814 -1.25293e-006 -3.05391e-006 0.0552756 -18.5508 67.8987 19.4533 8.13649 25.2327 -3.48774 -176.908 0.414217 2.03 4.54188e-006 -4.6773e-006 -1.10792 -3.19788 -7.75062 0.445101 -1.14586e-006 -8.28892e-006 -0.0992002 18.3407 67.4764 -19.107 -8.13649 25.2327 3.48773 
39.5049 98.8361 3.0525 1.09983 -1.11799 1.35882 0.0301487 -1.77336 0.105173 0.0709849 0.457638 0.233876 0.0683069 2.10269 0.232793 -2.8562 19.441 -0.0066252 1.37747 -6.67956 -0.699499 73.3078 -0.885039 -2.09834 95.9578 19.6386 25.0183 -4.77083e-015 0 -6.36111e-015 9.66597 0.0689665 -0.00239874 4.53612e-006 3.71747e-006 -3.04125 8.02894 -4.95146 0.697669 -66.9391 2.05808 -0.0829697 -100.139 9.07214 -17.5688 5.20764e-007 -1.50383e-007 -3.28196e-006 -10.0952 6.01446 1.13717 -2.84531e-006 8.42267e-007 3 -8.02894 -4.95147 -0.697689 175.345 0.539954 1.62053 180 7.01556e-015 178.964 175.328 4.52906 179.814 -1.25293e-006 -3.05391e-006 0.0552756 -18.5505 67.8985 19.4531 8.13649 25.2327 -3.48774 -176.908 0.420594 2.03349 4.54188e-006 -4.6773e-006 -1.10792 -3.19337 -7.76737 0.445107 -1.14586e-006 -8.28892e-006 -0.0992002 18.3483 67.4858 -19.1146 -8.13649 25.2327 3.48773 
39.5059 98.8711 3.04707 1.09994 -1.12287 1.35685 0.0303462 -1.77291 0.105179 0.0698395 0.459709 0.233739 0.0671577 2.10476 0.232681 -2.86267 19.4733 0.000396614 1.38222 -6.71645 -0.694008 73.2972 -0.88961 -2.09936 95.9605 19.6861 25.0337 1.66979e-014 -1.27222e-014 3.18055e-015 9.62645 0.0690347 -0.000206985 4.53612e-006 3.71746e-006 -3.04123 8.02894 -4.95146 0.697669 -66.9521 2.06715 -0.0858755 -100.108 9.07916 -17.5588 5.20764e-007 -1.50383e-007 -3.28196e-006 -10.102 6.06486 1.14306 -2.84531e-006 8.42267e-007 3 -8.02894 -4.95147 -0.697689 175.347 0.539012 1.61743 180 7.01556e-015 178.964 175.333 4.53234 179.814 -1.25293e-006 -3.05391e-006 0.0552756 -18.5503 67.8982 19.4528 8.13649 25.2327 -3.48774 -176.909 0.426627 2.03678 4.54188e-006 -4.6773e-006 -1.10792 -3.18905 -7.78358 0.445108 -1.14586e-006 -8.28892e-006 -0.0992002 18.3555 67.4949 -19.122 -8.13649 25.2327 3.48773 
39.5053 98.8652 3.03501 1.10003 -1.12779 1.35498 0.0305337 -1.77243 0.105185 0.0687667 0.461742 0.233587 0.0660815 2.1068 0.232554 -2.86972 19.5054 0.00740189 1.38773 -6.75252 -0.688609 73.2872 -0.894073 -2.1004 95.9627 19.7352 25.0542 -7.95139e-016 0 -6.36111e-015 9.58167 0.0690528 0.00219222 4.53612e-006 3.71746e-006 -3.04123 8.02894 -4.95146 0.697669 -66.9658 2.07613 -0.0886335 -100.076 9.08654 -17.5512 5.20764e-007 -1.50383e-007 -3.28196e-006 -10.1069 6.11409 1.14878 -2.84531e-006 8.42267e-007 3 -8.02894 -4.95147 -0.697689 175.348 0.538005 1.61452 180 7.01556e-015 178.964 175.337 4.53561 179.814 -1.25293e-006 -3.05391e-006 0.0552756 -18.55 67.8978 19.4525 8.13649 25.2327 -3.48774 -176.91 0.432221 2.03981 4.54188e-006 -4.6773e-006 -1.10792 -3.185 -7.7991 0.4451 -1.14586e-006 -8.28892e-006 -0.0992002 18.3624 67.5035 -19.129 -8.13649 25.2327 3.48773 
